<svg width="21" height="21" viewBox="0 0 21 21" fill="none" xmlns="http://www.w3.org/2000/svg">
<path d="M17.9673 3.06487C16.0218 1.07838 13.3324 0 10.5858 0C4.74932 0 0.0572207 4.71081 0.114441 10.4432C0.114441 12.2595 0.629428 14.0189 1.48774 15.6081L0 21L5.55041 19.5811C7.09537 20.4324 8.81199 20.8297 10.5286 20.8297C16.3079 20.8297 21 16.1189 21 10.3865C21 7.60541 19.9128 4.9946 17.9673 3.06487ZM10.5858 19.0703C9.04087 19.0703 7.49591 18.673 6.17984 17.8784L5.83651 17.7081L2.51771 18.5595L3.37602 15.3243L3.14714 14.9838C0.629428 10.9541 1.83106 5.61892 5.95095 3.12162C10.0708 0.624324 15.3924 1.81622 17.9101 5.9027C20.4278 9.98919 19.2262 15.2676 15.1063 17.7649C13.7902 18.6162 12.188 19.0703 10.5858 19.0703ZM15.6213 12.7703L14.9918 12.4865C14.9918 12.4865 14.0763 12.0892 13.5041 11.8054C13.4469 11.8054 13.3896 11.7486 13.3324 11.7486C13.1608 11.7486 13.0463 11.8054 12.9319 11.8622C12.9319 11.8622 12.8747 11.9189 12.0736 12.827C12.0163 12.9405 11.9019 12.9973 11.7875 12.9973H11.7302C11.673 12.9973 11.5586 12.9405 11.5014 12.8838L11.2153 12.7703C10.5858 12.4865 10.0136 12.1459 9.55586 11.6919C9.44142 11.5784 9.26976 11.4649 9.15531 11.3514C8.75477 10.9541 8.35422 10.5 8.06812 9.98919L8.0109 9.87568C7.95368 9.81892 7.95368 9.76216 7.89646 9.64865C7.89646 9.53514 7.89646 9.42162 7.95368 9.36487C7.95368 9.36487 8.18256 9.08108 8.35422 8.91081C8.46867 8.7973 8.52589 8.62703 8.64033 8.51351C8.75477 8.34324 8.81199 8.11622 8.75477 7.94595C8.69755 7.66216 8.0109 6.12973 7.83924 5.78919C7.7248 5.61892 7.61035 5.56216 7.43869 5.50541H7.26703C7.15259 5.50541 6.98093 5.50541 6.80926 5.50541C6.69482 5.50541 6.58038 5.56216 6.46594 5.56216L6.40872 5.61892C6.29428 5.67568 6.17984 5.78919 6.0654 5.84595C5.95095 5.95946 5.89373 6.07297 5.77929 6.18649C5.37875 6.6973 5.14986 7.32162 5.14986 7.94595C5.14986 8.4 5.26431 8.85405 5.43597 9.25135L5.49319 9.42162C6.00817 10.5 6.69482 11.4649 7.61035 12.3162L7.83924 12.5432C8.0109 12.7135 8.18256 12.827 8.297 12.9973C9.49864 14.0189 10.8719 14.7568 12.4169 15.1541C12.5886 15.2108 12.8174 15.2108 12.9891 15.2676C13.1608 15.2676 13.3896 15.2676 13.5613 15.2676C13.8474 15.2676 14.1907 15.1541 14.4196 15.0405C14.5913 14.927 14.7057 14.927 14.8202 14.8135L14.9346 14.7C15.049 14.5865 15.1635 14.5297 15.2779 14.4162C15.3924 14.3027 15.5068 14.1892 15.564 14.0757C15.6785 13.8486 15.7357 13.5649 15.7929 13.2811C15.7929 13.1676 15.7929 12.9973 15.7929 12.8838C15.7929 12.8838 15.7357 12.827 15.6213 12.7703Z" fill="#0DC143"/>
</svg>
